<svg version="1.1" id="Layer_1" xmlns="http://www.w3.org/2000/svg" xmlns:xlink="http://www.w3.org/1999/xlink" x="0px" y="0px"
	 width="100%" viewBox="0 0 371 248" enable-background="new 0 0 371 248" xml:space="preserve">
<path fill="#000000" opacity="1.000000" stroke="none" 
	d="
M274.000000,249.000000 
	C182.666687,249.000000 91.833389,249.000000 1.000061,249.000000 
	C1.000041,166.333389 1.000041,83.666771 1.000020,1.000116 
	C124.666573,1.000078 248.333145,1.000078 371.999817,1.000039 
	C371.999878,83.666557 371.999878,166.333115 371.999939,248.999832 
	C339.500000,249.000000 307.000000,249.000000 274.000000,249.000000 
M193.980484,113.209305 
	C193.854309,112.653587 193.728134,112.097862 193.601959,111.542145 
	C193.413544,111.573807 193.225128,111.605469 193.036713,111.637131 
	C193.076920,112.379753 193.117142,113.122383 193.021255,114.710648 
	C193.021255,116.301193 193.021255,117.891731 193.021255,119.482277 
	C193.295044,119.490585 193.568817,119.498901 193.842606,119.507210 
	C193.842606,117.626633 193.842606,115.746056 193.980484,113.209305 
M277.029205,100.715675 
	C277.069397,101.443932 277.109589,102.172195 276.995270,103.585030 
	C277.646790,105.015282 278.298340,106.445534 278.353516,108.193176 
	C278.875244,109.503746 279.397003,110.814323 279.973633,112.841530 
	C280.195587,114.620842 279.983704,116.603951 280.708557,118.147026 
	C286.196442,129.829636 293.600006,140.025055 304.169891,147.723877 
	C315.146362,155.718857 327.081543,159.872559 341.018311,157.515274 
	C341.018311,153.348618 341.264984,149.348434 340.872528,145.411957 
	C340.750000,144.182663 338.774841,142.048096 337.863281,142.155624 
	C328.474518,143.263016 320.947479,138.745193 313.957031,133.807739 
	C304.381500,127.044426 297.063477,118.408707 296.988434,105.671562 
	C296.984528,105.012718 297.201294,104.166405 296.879700,103.724251 
	C293.491333,99.065994 295.149384,93.982048 295.895020,89.604561 
	C296.101318,89.984558 296.307648,90.364555 297.007660,91.653923 
	C296.843170,89.624535 296.758881,88.584549 297.343201,87.136421 
	C297.246521,85.405045 296.555908,83.429916 297.150085,81.982071 
	C300.852814,72.959999 306.534821,65.650230 314.509308,59.627579 
	C322.492004,53.598743 332.719147,55.394363 341.019531,50.105511 
	C341.019531,46.782722 341.187164,43.126629 340.924103,39.501797 
	C340.837799,38.313126 339.699432,36.268185 338.930237,36.214344 
	C334.235901,35.885738 329.020447,34.702698 324.884247,36.240295 
	C311.966553,41.042309 299.737213,46.796307 290.994324,58.739975 
	C283.929626,68.391052 279.461365,78.557495 277.099152,90.570999 
	C277.121582,91.715302 277.143982,92.859612 277.024353,94.851295 
	C277.071686,96.566216 277.119049,98.281136 277.029205,100.715675 
M75.976814,160.014511 
	C83.314819,159.957336 90.652824,159.900162 98.661140,159.998505 
	C99.146286,160.377304 99.631432,160.756119 100.012146,161.585114 
	C100.012146,161.585114 100.154083,162.024948 100.009735,162.948746 
	C100.060684,172.619370 100.111633,182.289978 100.066750,192.506821 
	C100.358437,192.720093 100.650131,192.933380 100.688705,193.784866 
	C94.518936,196.862015 89.835617,201.218964 89.164551,208.484985 
	C88.310928,217.727707 89.337303,227.400146 98.948669,232.095520 
	C103.058563,234.103271 108.453674,233.783188 113.284126,233.945465 
	C121.527367,234.222336 130.495575,225.498260 131.735870,216.798309 
	C131.777420,215.605896 131.818970,214.413498 131.981339,212.376709 
	C131.569107,206.693817 129.834793,201.658783 125.360054,197.764038 
	C123.359955,196.023209 121.678261,193.916550 119.987038,191.051285 
	C119.987038,180.306107 119.987038,169.560928 119.987038,158.815750 
	C119.642120,158.815140 119.297195,158.814529 118.952278,158.813904 
	C118.952278,169.503479 118.952278,180.193039 118.158363,190.545258 
	C118.053879,179.331650 117.949394,168.118042 117.983864,156.193710 
	C114.656837,148.266327 109.052002,143.409866 99.955368,142.441818 
	C99.621101,142.342911 99.286842,142.243988 98.474869,142.036545 
	C98.474869,142.036545 98.001320,142.161972 97.070778,142.020966 
	C77.718178,142.071854 58.365574,142.122726 38.355068,142.033936 
	C37.159142,141.646088 35.963215,141.258240 35.765221,140.901855 
	C56.964386,140.901855 78.163551,140.901855 99.362717,140.901855 
	C98.747871,140.157761 98.113716,140.007828 97.479462,140.007431 
	C78.156120,139.995331 58.832699,139.975693 39.509571,140.040497 
	C37.968258,140.045685 36.428955,140.650299 34.250618,140.724380 
	C30.795265,138.008987 29.390442,134.477097 30.651596,129.872742 
	C31.054205,128.928024 31.456814,127.983315 32.128277,126.413818 
	C36.800980,124.470978 41.473686,122.528130 46.595135,120.398705 
	C46.473003,99.497147 55.388943,87.373596 82.985596,86.560799 
	C81.972343,71.269920 85.937508,58.617237 102.756905,53.224224 
	C103.904579,53.150444 105.052254,53.076668 106.858330,52.663673 
	C108.190895,51.867378 109.523460,51.071079 110.667801,50.387260 
	C110.667801,45.570702 110.667801,40.844223 110.667801,35.945560 
	C103.551018,37.008167 96.167976,34.206291 90.171989,39.905342 
	C85.121300,44.705910 79.286232,48.754292 74.671577,53.916256 
	C71.291397,57.697338 69.326416,62.743557 66.090706,67.417984 
	C66.111633,68.591751 66.132561,69.765526 65.832886,71.597382 
	C64.024132,71.766983 61.971066,71.437851 60.445347,72.185234 
	C48.453850,78.059395 38.180458,85.795547 33.026638,98.768677 
	C32.499683,100.095123 31.004080,101.744965 31.388842,102.603401 
	C33.099251,106.419479 30.234795,107.147339 28.017708,108.425156 
	C19.451895,113.362068 13.612094,119.642792 12.774561,130.481918 
	C11.712350,144.228760 21.207079,153.947876 29.667156,157.160263 
	C32.128601,158.053787 34.590050,158.947311 37.511692,159.964355 
	C37.511692,159.964355 37.975605,159.855652 38.902920,160.009155 
	C44.275608,159.957993 49.648296,159.906830 55.552364,159.900284 
	C55.737850,159.609756 55.923340,159.319214 56.835854,159.455185 
	C57.797691,165.815216 57.037178,170.829468 50.350975,174.534180 
	C43.582211,178.284637 40.918427,188.666748 43.340122,195.835083 
	C43.490829,196.281189 43.867466,196.703537 43.870811,197.139008 
	C43.927132,204.461670 49.326675,208.483887 54.682941,210.560410 
	C62.904079,213.747543 71.465843,213.997833 79.080627,207.152451 
	C84.799576,202.011353 88.520683,192.705673 86.527969,185.954330 
	C86.623291,185.526962 86.718605,185.099609 86.813919,184.672241 
	C86.477676,184.787872 86.141426,184.903519 85.222412,184.643845 
	C82.434662,180.873917 79.624550,177.120209 76.873657,173.323578 
	C76.111565,172.271759 75.525436,171.092438 74.989464,169.081055 
	C75.009644,166.090027 75.029823,163.098984 75.976814,160.014511 
M148.993744,77.017578 
	C148.993744,77.017578 149.016541,76.927483 148.076050,76.992599 
	C142.006485,76.996056 135.935394,76.926758 129.868362,77.052391 
	C128.284958,77.085175 126.714104,77.724899 124.999290,78.994209 
	C125.052773,83.303551 125.106255,87.612885 125.362175,92.784027 
	C134.658951,92.811195 143.955734,92.838356 154.027725,93.007111 
	C161.749878,93.613617 177.461349,105.561729 174.319244,116.177490 
	C174.534821,117.161125 174.750397,118.144760 174.989014,119.874229 
	C175.034988,121.423264 175.507217,123.109886 175.058731,124.499313 
	C171.806946,134.573730 162.604172,141.522537 151.049377,142.024963 
	C146.294159,142.016922 141.534973,141.886749 136.784988,142.040390 
	C133.142059,142.158203 129.510681,142.634003 125.160553,143.435471 
	C125.098892,146.910141 125.167206,150.393372 124.938675,153.857025 
	C124.714363,157.256866 126.329575,158.119553 129.414734,158.038940 
	C135.376083,157.883148 141.347458,157.870316 147.309021,158.021469 
	C155.975250,158.241196 164.633087,158.642258 172.694778,152.756195 
	C173.751251,152.136978 174.807739,151.517776 176.211594,150.324799 
	C179.671661,146.511932 183.517883,142.978073 186.514633,138.830460 
	C193.632767,128.978699 193.556534,117.622398 191.015945,106.572418 
	C187.927017,93.137650 178.740875,84.408356 166.154434,79.166656 
	C164.947922,52.529991 138.321533,32.338360 118.042656,36.841427 
	C118.042656,38.775402 118.042862,40.759865 118.042625,42.744331 
	C118.041466,52.276592 118.064301,52.164345 127.581558,54.104534 
	C130.468521,54.693069 133.500046,55.617199 135.928482,57.207470 
	C142.330597,61.399929 145.346008,68.152260 148.099289,75.527840 
	C148.367233,76.017540 148.635178,76.507233 148.993744,77.017578 
M316.284790,94.250870 
	C319.620728,83.039307 325.762451,75.381683 338.460388,73.729286 
	C343.558014,73.065948 340.387238,67.339241 340.891449,63.965240 
	C341.204193,61.872276 342.307251,58.683453 338.435364,58.001736 
	C337.949585,57.916203 337.437134,57.994473 336.938629,57.967228 
	C330.254395,57.601852 323.874023,59.834961 318.723938,63.237309 
	C308.316559,70.112801 300.426117,79.256836 300.118652,93.395477 
	C300.131073,95.930428 300.143494,98.465378 300.025085,101.784973 
	C300.609497,104.792694 300.788574,107.952850 301.851929,110.780457 
	C305.502136,120.486740 312.566254,127.395271 321.233154,132.653992 
	C326.404541,135.791779 332.267548,136.776688 338.266205,135.889786 
	C339.294220,135.737808 340.833618,134.140747 340.884583,133.147049 
	C341.087585,129.186188 341.304291,125.074768 340.375641,121.299591 
	C340.098175,120.171486 336.103455,119.959930 333.814301,119.319534 
	C333.663452,119.277321 333.543884,119.124977 333.393066,119.080582 
	C323.316833,116.114784 319.395477,107.857399 316.788788,98.737022 
	C316.568726,97.479813 316.348663,96.222603 316.284790,94.250870 
M207.086273,103.804558 
	C210.715698,141.787079 244.150818,163.055252 274.619202,157.323212 
	C274.619202,152.561371 274.619202,147.832245 274.619202,142.563919 
	C264.549866,144.727310 255.682327,141.054504 247.385971,137.377289 
	C237.001175,132.774384 230.678604,123.480591 226.073410,113.162323 
	C222.835785,105.908211 222.886673,98.292549 222.952682,90.581856 
	C223.092361,74.263878 222.995209,57.943867 222.995209,41.624687 
	C222.995209,39.857265 222.995209,38.089844 222.995209,36.165379 
	C217.914352,36.165379 213.448517,36.165379 208.123703,36.075775 
	C207.753204,36.859436 207.059387,37.643093 207.059372,38.426754 
	C207.059189,59.948547 207.129669,81.470337 207.086273,103.804558 
M332.577179,83.874718 
	C330.666473,85.644470 328.496338,87.207535 326.891846,89.221283 
	C321.234192,96.322182 324.156189,105.438354 332.553467,109.452980 
	C340.647247,113.322495 347.920532,111.156525 353.072449,105.500488 
	C355.771942,102.536880 357.441559,96.458298 354.084259,91.367973 
	C349.759277,84.810532 341.559113,77.116669 332.577179,83.874718 
M205.999390,60.500015 
	C205.999390,52.607250 205.999390,44.714485 205.999390,36.821720 
	C205.759689,36.828880 205.520004,36.836037 205.280304,36.843197 
	C205.280304,58.335686 205.280304,79.828178 205.280304,101.320663 
	C205.520004,101.321526 205.759689,101.322395 205.999390,101.323257 
	C205.999390,88.048843 205.999390,74.774422 205.999390,60.500015 
M224.000000,71.500000 
	C224.000000,80.700424 224.000000,89.900848 224.000000,99.101273 
	C224.238144,99.095505 224.476273,99.089729 224.714417,99.083954 
	C224.714417,78.289627 224.714417,57.495300 224.714417,36.700974 
	C224.476273,36.700024 224.238144,36.699074 224.000000,36.698128 
	C224.000000,47.965416 224.000000,59.232708 224.000000,71.500000 
M156.735397,159.970230 
	C156.798676,159.695892 156.874741,159.422928 156.904343,159.145004 
	C156.907104,159.118927 156.617035,159.024307 156.462906,159.024216 
	C146.535172,159.018295 136.607437,159.018875 126.679703,159.018875 
	C126.679092,159.350983 126.678490,159.683090 126.677879,160.015198 
	C136.410034,160.015198 146.142197,160.015198 156.735397,159.970230 
M140.490891,95.003998 
	C144.416016,95.003998 148.341141,95.003998 152.266266,95.003998 
	C152.253418,94.756126 152.240555,94.508247 152.227692,94.260376 
	C143.724808,94.260376 135.221909,94.260376 126.719009,94.260376 
	C126.717293,94.508247 126.715576,94.756126 126.713867,95.003998 
	C130.977020,95.003998 135.240173,95.003998 140.490891,95.003998 
M318.010956,98.124573 
	C318.140411,98.572075 318.269867,99.019569 318.729492,100.608383 
	C318.729492,97.828102 318.729492,96.212769 318.729492,94.597435 
	C318.553101,94.588074 318.376709,94.578712 318.200317,94.569351 
	C318.134186,95.503143 318.068024,96.436935 318.010956,98.124573 
M110.562752,235.965866 
	C110.968285,235.837326 111.373810,235.708801 111.779343,235.580276 
	C111.759041,235.431427 111.738739,235.282578 111.718445,235.133728 
	C110.789696,235.193314 109.860947,235.252899 107.491608,235.404922 
	C109.266281,235.808228 109.569290,235.877075 110.562752,235.965866 
z"/>
<path fill="#07B0F1" opacity="1.000000" stroke="none" 
	d="
M30.032213,130.130295 
	C29.390442,134.477097 30.795265,138.008987 34.528973,140.835724 
	C34.807327,140.947052 34.767288,140.870377 34.767288,140.870377 
	C35.963215,141.258240 37.159142,141.646088 39.019966,142.343124 
	C58.528301,142.746567 77.371712,142.847977 96.215263,142.902222 
	C96.809906,142.903931 97.405937,142.419678 98.001320,142.161972 
	C98.001320,142.161972 98.474869,142.036545 98.870033,142.289246 
	C99.565376,142.687119 99.865555,142.832275 100.165733,142.977417 
	C109.052002,143.409866 114.656837,148.266327 117.646469,156.880630 
	C117.207565,168.470703 117.074142,179.373917 117.091530,190.276886 
	C117.092476,190.870758 118.353096,191.462631 119.233391,192.033997 
	C119.439415,192.012573 119.852074,191.975906 119.852066,191.975906 
	C121.678261,193.916550 123.359955,196.023209 125.360054,197.764038 
	C129.834793,201.658783 131.569107,206.693817 131.628830,212.993362 
	C131.206390,214.767776 131.136444,215.925552 131.066513,217.083313 
	C130.495575,225.498260 121.527367,234.222336 113.284126,233.945465 
	C108.453674,233.783188 103.058563,234.103271 98.948669,232.095520 
	C89.337303,227.400146 88.310928,217.727707 89.164551,208.484985 
	C89.835617,201.218964 94.518936,196.862015 101.245201,193.399078 
	C102.200264,192.562912 102.942345,192.115906 102.946754,191.661728 
	C103.038353,182.235764 103.114784,172.807739 102.942505,163.384720 
	C102.928474,162.617813 101.101257,161.884079 100.116577,161.134918 
	C99.631432,160.756119 99.146286,160.377304 98.327637,159.749252 
	C97.994125,159.500000 97.990555,159.156998 98.290886,159.080872 
	C99.045311,158.700439 99.499405,158.396164 99.862564,157.697784 
	C99.120453,156.883789 98.473495,156.106262 97.817451,156.098526 
	C90.051735,156.006927 82.283676,155.973267 74.519341,156.105865 
	C73.682053,156.120163 72.864243,157.274841 71.756248,158.218445 
	C71.046814,163.294693 69.861229,168.139847 73.018570,173.885254 
	C73.610207,171.682770 73.846359,170.803635 74.275856,169.947449 
	C74.469193,169.970367 74.858566,169.971619 74.858566,169.971619 
	C75.525436,171.092438 76.111565,172.271759 76.873657,173.323578 
	C79.624550,177.120209 82.434662,180.873917 85.568451,185.124207 
	C85.941719,185.801727 85.968941,185.998871 85.996162,186.195999 
	C88.520683,192.705673 84.799576,202.011353 79.080627,207.152451 
	C71.465843,213.997833 62.904079,213.747543 54.682941,210.560410 
	C49.326675,208.483887 43.927132,204.461670 43.870811,197.139008 
	C43.867466,196.703537 43.490829,196.281189 43.340122,195.835083 
	C40.918427,188.666748 43.582211,178.284637 50.350975,174.534180 
	C57.037178,170.829468 57.797691,165.815216 56.257706,159.333542 
	C55.391224,159.356094 55.171700,159.570679 55.020985,159.855667 
	C49.648296,159.906830 44.275608,159.957993 38.333050,159.757187 
	C37.584915,159.289642 37.363197,159.137314 37.182049,158.656769 
	C38.922523,157.839218 40.567211,157.110611 42.237698,157.045685 
	C46.674850,156.873215 51.123135,156.987106 55.566994,156.987106 
	C47.120564,156.000839 38.731964,155.346191 30.334211,154.844803 
	C29.926722,154.820465 29.438841,156.142609 28.988396,156.837753 
	C21.207079,153.947876 11.712350,144.228760 12.774561,130.481918 
	C13.612094,119.642792 19.451895,113.362068 28.017708,108.425156 
	C30.234795,107.147339 33.099251,106.419479 31.388842,102.603401 
	C31.004080,101.744965 32.499683,100.095123 33.026638,98.768677 
	C38.180458,85.795547 48.453850,78.059395 60.445347,72.185234 
	C61.971066,71.437851 64.024132,71.766983 66.211975,71.051689 
	C66.637604,69.412628 66.684135,68.319267 66.730667,67.225899 
	C69.326416,62.743557 71.291397,57.697338 74.671577,53.916256 
	C79.286232,48.754292 85.121300,44.705910 90.171989,39.905342 
	C96.167976,34.206291 103.551018,37.008167 110.667801,35.945560 
	C110.667801,40.844223 110.667801,45.570702 110.667801,50.387260 
	C109.523460,51.071079 108.190895,51.867378 106.265015,52.684898 
	C104.219978,50.238308 102.974373,49.859180 102.082039,53.060329 
	C85.937508,58.617237 81.972343,71.269920 82.985596,86.560799 
	C55.388943,87.373596 46.473003,99.497147 46.595135,120.398705 
	C41.473686,122.528130 36.800980,124.470978 31.726921,126.847839 
	C30.315935,127.968658 27.477200,127.824944 30.032213,130.130295 
M60.237350,186.563568 
	C57.214973,191.501724 58.470310,196.501999 63.210358,196.845291 
	C65.377640,197.002243 68.525490,195.591843 69.698372,193.857452 
	C70.702789,192.372208 70.262970,188.935074 69.149147,187.207642 
	C67.189651,184.168640 63.941368,184.125305 60.237350,186.563568 
M104.004044,212.619064 
	C104.065132,216.317062 105.917992,219.173630 109.540459,218.897552 
	C111.801308,218.725250 114.941666,216.671066 115.730927,214.684204 
	C116.412643,212.968048 114.964951,209.458969 113.335793,207.975891 
	C110.273720,205.188370 106.523346,207.017105 104.004044,212.619064 
M29.565632,126.516876 
	C29.565632,126.516876 29.484272,126.560638 29.565632,126.516876 
z"/>
<path fill="#F35F2E" opacity="1.000000" stroke="none" 
	d="
M148.155380,74.946083 
	C145.346008,68.152260 142.330597,61.399929 135.928482,57.207470 
	C133.500046,55.617199 130.468521,54.693069 127.581558,54.104534 
	C118.064301,52.164345 118.041466,52.276592 118.042625,42.744331 
	C118.042862,40.759865 118.042656,38.775402 118.042656,36.841427 
	C138.321533,32.338360 164.947922,52.529991 166.150360,79.170380 
	C178.740875,84.408356 187.927017,93.137650 191.015945,106.572418 
	C193.556534,117.622398 193.632767,128.978699 186.514633,138.830460 
	C183.517883,142.978073 179.671661,146.511932 175.761963,150.486847 
	C174.213242,151.377914 173.114151,152.106949 172.015076,152.835983 
	C164.633087,158.642258 155.975250,158.241196 147.309021,158.021469 
	C141.347458,157.870316 135.376083,157.883148 129.414734,158.038940 
	C126.329575,158.119553 124.714363,157.256866 124.938675,153.857025 
	C125.167206,150.393372 125.098892,146.910141 125.993912,143.206573 
	C135.209946,142.706131 143.592621,142.434601 151.975296,142.163071 
	C162.604172,141.522537 171.806946,134.573730 175.058731,124.499313 
	C175.507217,123.109886 175.034988,121.423264 175.001007,119.095963 
	C174.993713,117.508522 174.974411,116.699341 174.955109,115.890160 
	C177.461349,105.561729 161.749878,93.613617 153.313263,92.634087 
	C143.452438,92.148117 134.306091,92.035164 125.159729,91.922226 
	C125.106255,87.612885 125.052773,83.303551 125.527489,78.517921 
	C129.855591,78.026390 133.661987,78.144043 137.453598,77.958862 
	C141.315506,77.770241 145.162827,77.283630 149.016541,76.927490 
	C149.016541,76.927483 148.993744,77.017578 149.206711,76.882492 
	C148.998245,76.146973 148.576813,75.546524 148.155380,74.946083 
z"/>
<path fill="#F36131" opacity="1.000000" stroke="none" 
	d="
M278.949860,107.875778 
	C278.298340,106.445534 277.646790,105.015282 277.325928,103.055107 
	C277.752258,101.697403 277.847992,100.869621 277.961304,99.607254 
	C277.964630,97.432739 277.950409,95.692810 277.951324,93.565094 
	C277.840515,92.162483 277.714569,91.147659 277.588623,90.132828 
	C279.461365,78.557495 283.929626,68.391052 290.994324,58.739975 
	C299.737213,46.796307 311.966553,41.042309 324.884247,36.240295 
	C329.020447,34.702698 334.235901,35.885738 338.930237,36.214344 
	C339.699432,36.268185 340.837799,38.313126 340.924103,39.501797 
	C341.187164,43.126629 341.019531,46.782722 341.019531,50.105511 
	C332.719147,55.394363 322.492004,53.598743 314.509308,59.627579 
	C306.534821,65.650230 300.852814,72.959999 297.150085,81.982071 
	C296.555908,83.429916 297.246521,85.405045 296.831543,87.296188 
	C296.052246,87.972565 295.784668,88.489182 295.517090,89.005798 
	C295.149384,93.982048 293.491333,99.065994 296.879700,103.724251 
	C297.201294,104.166405 296.984528,105.012718 296.988434,105.671562 
	C297.063477,118.408707 304.381500,127.044426 313.957031,133.807739 
	C320.947479,138.745193 328.474518,143.263016 337.863281,142.155624 
	C338.774841,142.048096 340.750000,144.182663 340.872528,145.411957 
	C341.264984,149.348434 341.018311,153.348618 341.018311,157.515274 
	C327.081543,159.872559 315.146362,155.718857 304.169891,147.723877 
	C293.600006,140.025055 286.196442,129.829636 280.708557,118.147026 
	C279.983704,116.603951 280.195587,114.620842 280.195770,112.267433 
	C279.928558,110.420822 279.439209,109.148300 278.949860,107.875778 
z"/>
<path fill="#F25E2D" opacity="1.000000" stroke="none" 
	d="
M208.982666,36.165379 
	C213.448517,36.165379 217.914352,36.165379 222.995209,36.165379 
	C222.995209,38.089844 222.995209,39.857265 222.995209,41.624687 
	C222.995209,57.943867 223.092361,74.263878 222.952682,90.581856 
	C222.886673,98.292549 222.835785,105.908211 226.073410,113.162323 
	C230.678604,123.480591 237.001175,132.774384 247.385971,137.377289 
	C255.682327,141.054504 264.549866,144.727310 274.619202,142.563919 
	C274.619202,147.832245 274.619202,152.561371 274.619202,157.323212 
	C244.150818,163.055252 210.715698,141.787079 207.508270,103.272926 
	C208.285217,101.035805 208.943329,99.331314 208.948929,97.624672 
	C209.016220,77.138428 208.986816,56.651859 208.982666,36.165379 
z"/>
<path fill="#F36131" opacity="1.000000" stroke="none" 
	d="
M300.836792,92.991547 
	C300.426117,79.256836 308.316559,70.112801 318.723938,63.237309 
	C323.874023,59.834961 330.254395,57.601852 336.938629,57.967228 
	C337.437134,57.994473 337.949585,57.916203 338.435364,58.001736 
	C342.307251,58.683453 341.204193,61.872276 340.891449,63.965240 
	C340.387238,67.339241 343.558014,73.065948 338.460388,73.729286 
	C325.762451,75.381683 319.620728,83.039307 316.111511,95.007820 
	C316.006134,96.851517 316.074036,97.938255 316.141968,99.025002 
	C319.395477,107.857399 323.316833,116.114784 333.393066,119.080582 
	C333.543884,119.124977 333.663452,119.277321 333.814301,119.319534 
	C336.103455,119.959930 340.098175,120.171486 340.375641,121.299591 
	C341.304291,125.074768 341.087585,129.186188 340.884583,133.147049 
	C340.833618,134.140747 339.294220,135.737808 338.266205,135.889786 
	C332.267548,136.776688 326.404541,135.791779 321.233154,132.653992 
	C312.566254,127.395271 305.502136,120.486740 301.851929,110.780457 
	C300.788574,107.952850 300.609497,104.792694 300.440247,101.171677 
	C300.849213,98.036095 300.842987,95.513824 300.836792,92.991547 
z"/>
<path fill="#353797" opacity="1.000000" stroke="none" 
	d="
M332.827332,83.593353 
	C341.559113,77.116669 349.759277,84.810532 354.084259,91.367973 
	C357.441559,96.458298 355.771942,102.536880 353.072449,105.500488 
	C347.920532,111.156525 340.647247,113.322495 332.553467,109.452980 
	C324.156189,105.438354 321.234192,96.322182 326.891846,89.221283 
	C328.496338,87.207535 330.666473,85.644470 332.827332,83.593353 
z"/>
<path fill="#F86737" opacity="1.000000" stroke="none" 
	d="
M208.553192,36.120575 
	C208.986816,56.651859 209.016220,77.138428 208.948929,97.624672 
	C208.943329,99.331314 208.285217,101.035805 207.559326,102.866714 
	C207.129669,81.470337 207.059189,59.948547 207.059372,38.426754 
	C207.059387,37.643093 207.753204,36.859436 208.553192,36.120575 
z"/>
<path fill="#FF8140" opacity="1.000000" stroke="none" 
	d="
M205.999390,61.000011 
	C205.999390,74.774422 205.999390,88.048843 205.999390,101.323257 
	C205.759689,101.322395 205.520004,101.321526 205.280304,101.320663 
	C205.280304,79.828178 205.280304,58.335686 205.280304,36.843197 
	C205.520004,36.836037 205.759689,36.828880 205.999390,36.821720 
	C205.999390,44.714485 205.999390,52.607250 205.999390,61.000011 
z"/>
<path fill="#01FBFE" opacity="1.000000" stroke="none" 
	d="
M34.848022,140.961700 
	C36.428955,140.650299 37.968258,140.045685 39.509571,140.040497 
	C58.832699,139.975693 78.156120,139.995331 97.479462,140.007431 
	C98.113716,140.007828 98.747871,140.157761 99.362717,140.901855 
	C78.163551,140.901855 56.964386,140.901855 35.266254,140.886108 
	C34.767288,140.870377 34.807327,140.947052 34.848022,140.961700 
z"/>
<path fill="#FF8000" opacity="1.000000" stroke="none" 
	d="
M224.000000,71.000000 
	C224.000000,59.232708 224.000000,47.965416 224.000000,36.698128 
	C224.238144,36.699074 224.476273,36.700024 224.714417,36.700974 
	C224.714417,57.495300 224.714417,78.289627 224.714417,99.083954 
	C224.476273,99.089729 224.238144,99.095505 224.000000,99.101273 
	C224.000000,89.900848 224.000000,80.700424 224.000000,71.000000 
z"/>
<path fill="#26BFF2" opacity="1.000000" stroke="none" 
	d="
M97.536049,142.091461 
	C97.405937,142.419678 96.809906,142.903931 96.215263,142.902222 
	C77.371712,142.847977 58.528301,142.746567 39.348919,142.412964 
	C58.365574,142.122726 77.718178,142.071854 97.536049,142.091461 
z"/>
<path fill="#15BCFB" opacity="1.000000" stroke="none" 
	d="
M29.327774,156.999008 
	C29.438841,156.142609 29.926722,154.820465 30.334211,154.844803 
	C38.731964,155.346191 47.120564,156.000839 55.566994,156.987106 
	C51.123135,156.987106 46.674850,156.873215 42.237698,157.045685 
	C40.567211,157.110611 38.922523,157.839218 37.161201,158.854065 
	C37.056332,159.442871 37.051491,159.840851 37.051491,159.840851 
	C34.590050,158.947311 32.128601,158.053787 29.327774,156.999008 
z"/>
<path fill="#46C5F4" opacity="1.000000" stroke="none" 
	d="
M119.027359,192.055435 
	C118.353096,191.462631 117.092476,190.870758 117.091530,190.276886 
	C117.074142,179.373917 117.207565,168.470703 117.576988,157.235992 
	C117.949394,168.118042 118.053879,179.331650 118.573708,191.007141 
	C119.001816,191.664505 119.014587,191.859970 119.027359,192.055435 
z"/>
<path fill="#8AD5F5" opacity="1.000000" stroke="none" 
	d="
M100.064362,161.360016 
	C101.101257,161.884079 102.928474,162.617813 102.942505,163.384720 
	C103.114784,172.807739 103.038353,182.235764 102.946754,191.661728 
	C102.942345,192.115906 102.200264,192.562912 101.371758,193.079956 
	C100.650131,192.933380 100.358437,192.720093 100.395248,192.206848 
	C101.136810,191.566330 101.549881,191.225754 101.974533,190.423798 
	C101.986702,182.087387 102.037354,174.211777 101.942680,166.337891 
	C101.925232,164.886658 101.319511,163.442490 100.777740,162.008682 
	C100.570145,162.022293 100.154083,162.024948 100.154083,162.024948 
	C100.154083,162.024948 100.012146,161.585114 100.064362,161.360016 
z"/>
<path fill="#3DBEFD" opacity="1.000000" stroke="none" 
	d="
M119.233383,192.033997 
	C119.014587,191.859970 119.001816,191.664505 118.970665,191.175812 
	C118.952278,180.193039 118.952278,169.503479 118.952278,158.813904 
	C119.297195,158.814529 119.642120,158.815140 119.987038,158.815750 
	C119.987038,169.560928 119.987038,180.306107 119.919556,191.513596 
	C119.852074,191.975906 119.439415,192.012573 119.233383,192.033997 
z"/>
<path fill="#FF8140" opacity="1.000000" stroke="none" 
	d="
M156.304871,159.992706 
	C146.142197,160.015198 136.410034,160.015198 126.677879,160.015198 
	C126.678490,159.683090 126.679092,159.350983 126.679703,159.018875 
	C136.607437,159.018875 146.535172,159.018295 156.462906,159.024216 
	C156.617035,159.024307 156.907104,159.118927 156.904343,159.145004 
	C156.874741,159.422928 156.798676,159.695892 156.304871,159.992706 
z"/>
<path fill="#A6FDFF" opacity="1.000000" stroke="none" 
	d="
M101.962952,190.885178 
	C101.549881,191.225754 101.136810,191.566330 100.443161,191.933746 
	C100.111633,182.289978 100.060684,172.619370 100.081909,162.486847 
	C100.154083,162.024948 100.570145,162.022293 100.786125,162.477570 
	C101.002617,170.639297 100.949524,178.346436 101.047157,186.051651 
	C101.067612,187.666428 101.643181,189.274185 101.962952,190.885178 
z"/>
<path fill="#FABFAA" opacity="1.000000" stroke="none" 
	d="
M125.260956,92.353119 
	C134.306091,92.035164 143.452438,92.148117 152.925659,92.563293 
	C143.955734,92.838356 134.658951,92.811195 125.260956,92.353119 
z"/>
<path fill="#FFFA80" opacity="1.000000" stroke="none" 
	d="
M139.997101,95.003998 
	C135.240173,95.003998 130.977020,95.003998 126.713867,95.003998 
	C126.715576,94.756126 126.717293,94.508247 126.719009,94.260376 
	C135.221909,94.260376 143.724808,94.260376 152.227692,94.260376 
	C152.240555,94.508247 152.253418,94.756126 152.266266,95.003998 
	C148.341141,95.003998 144.416016,95.003998 139.997101,95.003998 
z"/>
<path fill="#F27341" opacity="1.000000" stroke="none" 
	d="
M151.512329,142.094025 
	C143.592621,142.434601 135.209946,142.706131 126.350723,142.964127 
	C129.510681,142.634003 133.142059,142.158203 136.784988,142.040390 
	C141.534973,141.886749 146.294159,142.016922 151.512329,142.094025 
z"/>
<path fill="#F58662" opacity="1.000000" stroke="none" 
	d="
M148.546295,76.960045 
	C145.162827,77.283630 141.315506,77.770241 137.453598,77.958862 
	C133.661987,78.144043 129.855591,78.026390 125.596588,78.063751 
	C126.714104,77.724899 128.284958,77.085175 129.868362,77.052391 
	C135.935394,76.926758 142.006485,76.996056 148.546295,76.960045 
z"/>
<path fill="#00BDFF" opacity="1.000000" stroke="none" 
	d="
M97.990555,159.156998 
	C97.990555,159.156998 97.994125,159.500000 97.992477,159.671509 
	C90.652824,159.900162 83.314819,159.957336 75.447769,159.837311 
	C74.918732,159.660110 74.874313,159.195557 75.349281,159.109528 
	C83.213020,159.067993 90.601784,159.112488 97.990555,159.156998 
z"/>
<path fill="#01FBFE" opacity="1.000000" stroke="none" 
	d="
M74.874313,159.195557 
	C74.874313,159.195557 74.918732,159.660110 74.984367,159.884033 
	C75.029823,163.098984 75.009644,166.090027 74.924011,169.526337 
	C74.858566,169.971619 74.469193,169.970367 74.241180,169.513885 
	C73.730484,165.770584 73.447800,162.483765 73.448051,159.137451 
	C74.112099,159.117172 74.493202,159.156357 74.874313,159.195557 
z"/>
<path fill="#46C5F4" opacity="1.000000" stroke="none" 
	d="
M102.419472,53.142277 
	C102.974373,49.859180 104.219978,50.238308 105.935806,52.854507 
	C105.052254,53.076668 103.904579,53.150444 102.419472,53.142277 
z"/>
<path fill="#F27341" opacity="1.000000" stroke="none" 
	d="
M278.651672,108.034477 
	C279.439209,109.148300 279.928558,110.420822 280.168335,111.909119 
	C279.397003,110.814323 278.875244,109.503746 278.651672,108.034477 
z"/>
<path fill="#F6FCFE" opacity="1.000000" stroke="none" 
	d="
M300.477722,93.193512 
	C300.842987,95.513824 300.849213,98.036095 300.505676,100.779350 
	C300.143494,98.465378 300.131073,95.930428 300.477722,93.193512 
z"/>
<path fill="#FF8140" opacity="1.000000" stroke="none" 
	d="
M172.354919,152.796082 
	C173.114151,152.106949 174.213242,151.377914 175.588287,150.773727 
	C174.807739,151.517776 173.751251,152.136978 172.354919,152.796082 
z"/>
<path fill="#FF0000" opacity="1.000000" stroke="none" 
	d="
M318.006409,97.747650 
	C318.068024,96.436935 318.134186,95.503143 318.200317,94.569351 
	C318.376709,94.578712 318.553101,94.588074 318.729492,94.597435 
	C318.729492,96.212769 318.729492,97.828102 318.729492,100.608383 
	C318.269867,99.019569 318.140411,98.572075 318.006409,97.747650 
z"/>
<path fill="#FF8000" opacity="1.000000" stroke="none" 
	d="
M277.936188,93.952881 
	C277.950409,95.692810 277.964630,97.432739 277.767334,99.593674 
	C277.555786,100.014687 277.166382,99.996056 277.166382,99.996056 
	C277.119049,98.281136 277.071686,96.566216 277.287994,94.417580 
	C277.551636,93.983864 277.936188,93.952881 277.936188,93.952881 
z"/>
<path fill="#F25E2D" opacity="1.000000" stroke="none" 
	d="
M193.842606,113.865479 
	C193.842606,115.746056 193.842606,117.626633 193.842606,119.507210 
	C193.568817,119.498901 193.295044,119.490585 193.021255,119.482277 
	C193.021255,117.891731 193.021255,116.301193 193.260712,114.300392 
	C193.500153,113.890137 193.842606,113.865479 193.842606,113.865479 
z"/>
<path fill="#15BCFB" opacity="1.000000" stroke="none" 
	d="
M30.341904,130.001526 
	C27.477200,127.824944 30.315935,127.968658 31.592495,127.160233 
	C31.456814,127.983315 31.054205,128.928024 30.341904,130.001526 
z"/>
<path fill="#F58662" opacity="1.000000" stroke="none" 
	d="
M295.706055,89.305176 
	C295.784668,88.489182 296.052246,87.972565 296.497223,87.500259 
	C296.758881,88.584549 296.843170,89.624535 297.007660,91.653923 
	C296.307648,90.364555 296.101318,89.984558 295.706055,89.305176 
z"/>
<path fill="#00BDFF" opacity="1.000000" stroke="none" 
	d="
M66.410690,67.321945 
	C66.684135,68.319267 66.637604,69.412628 66.372276,70.722641 
	C66.132561,69.765526 66.111633,68.591751 66.410690,67.321945 
z"/>
<path fill="#FF0000" opacity="1.000000" stroke="none" 
	d="
M277.951324,93.565094 
	C277.936188,93.952881 277.551636,93.983864 277.359009,93.993889 
	C277.143982,92.859612 277.121582,91.715302 277.343872,90.351913 
	C277.714569,91.147659 277.840515,92.162483 277.951324,93.565094 
z"/>
<path fill="#F0FAFE" opacity="1.000000" stroke="none" 
	d="
M131.401184,216.940811 
	C131.136444,215.925552 131.206390,214.767776 131.568420,213.415558 
	C131.818970,214.413498 131.777420,215.605896 131.401184,216.940811 
z"/>
<path fill="#353797" opacity="1.000000" stroke="none" 
	d="
M110.217529,235.955902 
	C109.569290,235.877075 109.266281,235.808228 107.491608,235.404922 
	C109.860947,235.252899 110.789696,235.193314 111.718445,235.133728 
	C111.738739,235.282578 111.759041,235.431427 111.779343,235.580276 
	C111.373810,235.708801 110.968285,235.837326 110.217529,235.955902 
z"/>
<path fill="#F6FCFE" opacity="1.000000" stroke="none" 
	d="
M316.465393,98.881012 
	C316.074036,97.938255 316.006134,96.851517 316.033417,95.365082 
	C316.348663,96.222603 316.568726,97.479813 316.465393,98.881012 
z"/>
<path fill="#F58662" opacity="1.000000" stroke="none" 
	d="
M148.127335,75.236961 
	C148.576813,75.546524 148.998245,76.146973 149.161407,76.872169 
	C148.635178,76.507233 148.367233,76.017540 148.127335,75.236961 
z"/>
<path fill="#FF0000" opacity="1.000000" stroke="none" 
	d="
M277.097778,100.355865 
	C277.166382,99.996056 277.555786,100.014687 277.749756,100.028259 
	C277.847992,100.869621 277.752258,101.697403 277.403168,102.712814 
	C277.109589,102.172195 277.069397,101.443932 277.097778,100.355865 
z"/>
<path fill="#F58662" opacity="1.000000" stroke="none" 
	d="
M193.911545,113.537392 
	C193.842606,113.865479 193.500153,113.890137 193.328766,113.877571 
	C193.117142,113.122383 193.076920,112.379753 193.036713,111.637131 
	C193.225128,111.605469 193.413544,111.573807 193.601959,111.542145 
	C193.728134,112.097862 193.854309,112.653587 193.911545,113.537392 
z"/>
<path fill="#F58662" opacity="1.000000" stroke="none" 
	d="
M174.637177,116.033829 
	C174.974411,116.699341 174.993713,117.508522 174.989502,118.723053 
	C174.750397,118.144760 174.534821,117.161125 174.637177,116.033829 
z"/>
<path fill="#46C5F4" opacity="1.000000" stroke="none" 
	d="
M86.262070,186.075165 
	C85.968941,185.998871 85.941719,185.801727 85.859833,185.311859 
	C86.141426,184.903519 86.477676,184.787872 86.813919,184.672241 
	C86.718605,185.099609 86.623291,185.526962 86.262070,186.075165 
z"/>
<path fill="#00BDFF" opacity="1.000000" stroke="none" 
	d="
M55.286674,159.877975 
	C55.171700,159.570679 55.391224,159.356094 55.894196,159.120300 
	C55.923340,159.319214 55.737850,159.609756 55.286674,159.877975 
z"/>
<path fill="#00BDFF" opacity="1.000000" stroke="none" 
	d="
M37.281593,159.902603 
	C37.051491,159.840851 37.056332,159.442871 37.077179,159.245560 
	C37.363197,159.137314 37.584915,159.289642 37.869392,159.680435 
	C37.975605,159.855652 37.511692,159.964355 37.281593,159.902603 
z"/>
<path fill="#26BFF2" opacity="1.000000" stroke="none" 
	d="
M100.060547,142.709625 
	C99.865555,142.832275 99.565376,142.687119 99.108887,142.343521 
	C99.286842,142.243988 99.621101,142.342911 100.060547,142.709625 
z"/>
<path fill="#F0FAFE" opacity="1.000000" stroke="none" 
	d="
M60.537300,186.315979 
	C63.941368,184.125305 67.189651,184.168640 69.149147,187.207642 
	C70.262970,188.935074 70.702789,192.372208 69.698372,193.857452 
	C68.525490,195.591843 65.377640,197.002243 63.210358,196.845291 
	C58.470310,196.501999 57.214973,191.501724 60.537300,186.315979 
z"/>
<path fill="#F6FCFE" opacity="1.000000" stroke="none" 
	d="
M104.046013,212.227646 
	C106.523346,207.017105 110.273720,205.188370 113.335793,207.975891 
	C114.964951,209.458969 116.412643,212.968048 115.730927,214.684204 
	C114.941666,216.671066 111.801308,218.725250 109.540459,218.897552 
	C105.917992,219.173630 104.065132,216.317062 104.046013,212.227646 
z"/>
<path fill="#00BDFF" opacity="1.000000" stroke="none" 
	d="
M72.037399,157.900543 
	C72.864243,157.274841 73.682053,156.120163 74.519341,156.105865 
	C82.283676,155.973267 90.051735,156.006927 97.817451,156.098526 
	C98.473495,156.106262 99.120453,156.883789 99.399254,157.652893 
	C90.045883,158.016953 81.064888,158.031799 72.087372,158.005310 
	C72.090851,157.963974 72.037399,157.900543 72.037399,157.900543 
z"/>
<path fill="#0FB2F0" opacity="1.000000" stroke="none" 
	d="
M73.165108,159.196960 
	C73.447800,162.483765 73.730484,165.770584 74.047852,169.490967 
	C73.846359,170.803635 73.610207,171.682770 73.018570,173.885254 
	C69.861229,168.139847 71.046814,163.294693 71.756248,158.218445 
	C72.037399,157.900543 72.090851,157.963974 72.129318,158.291534 
	C72.500221,158.811722 72.832664,159.004333 73.165108,159.196960 
z"/>
<path fill="#000000" opacity="1.000000" stroke="none" 
	d="
M73.448044,159.137466 
	C72.832664,159.004333 72.500221,158.811722 72.125839,158.332886 
	C81.064888,158.031799 90.045883,158.016953 99.490189,158.046997 
	C99.499405,158.396164 99.045311,158.700439 98.290886,159.080872 
	C90.601784,159.112488 83.213020,159.067993 75.349281,159.109528 
	C74.493202,159.156357 74.112099,159.117172 73.448044,159.137466 
z"/>
<path fill="#15BCFB" opacity="1.000000" stroke="none" 
	d="
M29.524952,126.538757 
	C29.484272,126.560638 29.565632,126.516876 29.524952,126.538757 
z"/>
<path fill="#000000" opacity="1.000000" stroke="none" 
	d="
M101.974533,190.423798 
	C101.643181,189.274185 101.067612,187.666428 101.047157,186.051651 
	C100.949524,178.346436 101.002617,170.639297 100.993713,162.463959 
	C101.319511,163.442490 101.925232,164.886658 101.942680,166.337891 
	C102.037354,174.211777 101.986702,182.087387 101.974533,190.423798 
z"/>
</svg>